<svg width="100" height="100" viewBox="0 0 100 100" fill="none" xmlns="http://www.w3.org/2000/svg">
<ellipse cx="77.5" cy="37.5" rx="11.5" ry="13.5" fill="#3F4937"/>
<rect x="11.4776" y="15" width="59" height="54.1531" rx="8" transform="rotate(0.526189 11.4776 15)" fill="#3F4937"/>
<path d="M75 18.75C77.4998 18.7426 79.9758 19.2352 82.2825 20.1988C84.5891 21.1623 86.6798 22.5774 88.4316 24.3608C90.1833 26.1442 91.5608 28.2599 92.4829 30.5834C93.4051 32.9069 93.8533 35.3914 93.8012 37.8907C93.7491 40.3899 93.1977 42.8536 92.1796 45.1366C91.1614 47.4197 89.697 49.4762 87.8725 51.185C86.0479 52.8938 83.9001 54.2206 81.5553 55.0872C79.2105 55.9538 76.7161 56.3428 74.2187 56.2312C72.8342 61.6022 69.7037 66.3605 65.3196 69.7581C60.9355 73.1556 55.5465 74.9996 50 75H31.25C24.6196 75 18.2607 72.3661 13.5723 67.6777C8.88392 62.9893 6.25 56.6304 6.25 50V15.625C6.25 14.7962 6.57924 14.0013 7.16529 13.4153C7.75134 12.8292 8.5462 12.5 9.375 12.5H71.875C72.7038 12.5 73.4987 12.8292 74.0847 13.4153C74.6708 14.0013 75 14.7962 75 15.625V18.75ZM75 25V50C78.3152 50 81.4946 48.683 83.8388 46.3388C86.183 43.9946 87.5 40.8152 87.5 37.5C87.5 34.1848 86.183 31.0054 83.8388 28.6612C81.4946 26.317 78.3152 25 75 25ZM9.375 81.25H71.875C72.7038 81.25 73.4987 81.5792 74.0847 82.1653C74.6708 82.7513 75 83.5462 75 84.375C75 85.2038 74.6708 85.9987 74.0847 86.5847C73.4987 87.1708 72.7038 87.5 71.875 87.5H9.375C8.5462 87.5 7.75134 87.1708 7.16529 86.5847C6.57924 85.9987 6.25 85.2038 6.25 84.375C6.25 83.5462 6.57924 82.7513 7.16529 82.1653C7.75134 81.5792 8.5462 81.25 9.375 81.25ZM12.5 18.75V50C12.5 54.9728 14.4754 59.7419 17.9917 63.2583C21.5081 66.7746 26.2772 68.75 31.25 68.75H50C54.9728 68.75 59.7419 66.7746 63.2583 63.2583C66.7746 59.7419 68.75 54.9728 68.75 50V18.75H12.5Z" fill="#E4B870"/>
<path d="M53 34.3333C35 38.4167 30.8 51.0138 26.64 61.5692L30.42 62.9167L32.32 58.2208C33.28 58.5679 34.28 58.8333 35 58.8333C57 58.8333 63 24.125 63 24.125C61 28.2083 47 28.7188 37 30.7604C27 32.8021 23 41.4792 23 45.5625C23 49.6458 26.5 53.2188 26.5 53.2188C33 34.3333 53 34.3333 53 34.3333Z" fill="#E4B870"/>
</svg>
